<svg width="512" height="512" viewBox="0 0 512 512" xmlns="http://www.w3.org/2000/svg">
  <defs>
    <linearGradient id="g" x1="0%" y1="0%" x2="100%" y2="100%">
      <stop offset="0%" stop-color="#9333ea"/>
      <stop offset="100%" stop-color="#06b6d4"/>
    </linearGradient>
  </defs>
  <rect width="512" height="512" rx="112" fill="url(#g)"/>
  <path d="M164 132h188c9.9 0 18 8.1 18 18v20c0 9.9-8.1 18-18 18H206v56h132c9.9 0 18 8.1 18 18v20c0 9.9-8.1 18-18 18H206v58h150c9.9 0 18 8.1 18 18v20c0 9.9-8.1 18-18 18H164c-9.9 0-18-8.1-18-18V150c0-9.9 8.1-18 18-18z" fill="#ffffff"/>
</svg>
